<?xml version="1.0" encoding="UTF-8" standalone="no"?>
<svg
   id="e74bd4af-75ad-424c-8d8d-88ea496f4445"
   data-name="Layer 1"
   width="1460.8829"
   height="400.92468"
   viewBox="0 0 1460.8855 400.92468"
   version="1.1"
   sodipodi:docname="snowman-header.svg"
   inkscape:version="1.1 (ce6663b3b7, 2021-05-25)"
   xmlns:inkscape="http://www.inkscape.org/namespaces/inkscape"
   xmlns:sodipodi="http://sodipodi.sourceforge.net/DTD/sodipodi-0.dtd"
   xmlns="http://www.w3.org/2000/svg"
   xmlns:svg="http://www.w3.org/2000/svg"
   xmlns:rdf="http://www.w3.org/1999/02/22-rdf-syntax-ns#"
   xmlns:cc="http://creativecommons.org/ns#"
   xmlns:dc="http://purl.org/dc/elements/1.1/">
  <title
     id="title1266">snowman header</title>
  <rect
     id="rect54057"
     width="100%"
     height="100%"
     x="0"
     y="0"
     style="fill:#2427ff;fill-opacity:1" />
  <defs
     id="defs147" />
  <sodipodi:namedview
     id="namedview145"
     pagecolor="#2e2e2e"
     bordercolor="#eeeeee"
     borderopacity="1"
     inkscape:pageshadow="0"
     inkscape:pageopacity="0"
     inkscape:pagecheckerboard="true"
     showgrid="false"
     fit-margin-top="0"
     fit-margin-left="0"
     fit-margin-right="0"
     fit-margin-bottom="0"
     inkscape:zoom="0.53148615"
     inkscape:cx="550.3436"
     inkscape:cy="186.27014"
     inkscape:window-width="1920"
     inkscape:window-height="1043"
     inkscape:window-x="0"
     inkscape:window-y="0"
     inkscape:window-maximized="1"
     inkscape:current-layer="e74bd4af-75ad-424c-8d8d-88ea496f4445" />
  <path
     d="m 280.95569,243.0459 a 94.07818,94.07818 0 0 1 -24.5459,63.53057 q -2.57491,2.85406 -5.4001,5.48673 c -0.52942,0.48129 -1.06365,0.96258 -1.6027,1.44387 a 0.65937028,0.65937028 0 0 1 -0.12032,0.1107 c -0.29359,0.27434 -0.59199,0.53424 -0.89039,0.78451 a 94.217756,94.217756 0 0 1 -18.21691,12.43177 q -1.28505,0.67863 -2.6038,1.31394 c -1.21766,0.59198 -2.44496,1.15509 -3.6915,1.68933 -0.83745,0.36096 -1.68453,0.7075 -2.5316,1.0444 a 93.308112,93.308112 0 0 1 -17.29764,5.01507 c -0.86151,0.16364 -1.72784,0.31765 -2.59898,0.4476 -1.33799,0.22139 -2.69524,0.4091 -4.05248,0.5583 -0.823,0.0963 -1.65083,0.18289 -2.48346,0.25509 q -4.17281,0.3754 -8.44668,0.3754 -4.27388,0 -8.47074,-0.3754 c -0.86633,-0.077 -1.73266,-0.16846 -2.59417,-0.27435 -1.3428,-0.1492 -2.6808,-0.3369 -4.00917,-0.54867 -0.81819,-0.13476 -1.62676,-0.27433 -2.44014,-0.42353 a 93.486192,93.486192 0 0 1 -16.9463,-4.86587 c -0.87114,-0.33691 -1.73265,-0.68825 -2.58936,-1.06365 q -1.80966,-0.75563 -3.58081,-1.61233 c -0.80376,-0.38504 -1.61233,-0.77969 -2.40646,-1.19361 a 93.85197,93.85197 0 0 1 -17.32652,-11.44031 c -0.87595,-0.71713 -1.72784,-1.44388 -2.57491,-2.20913 -0.84707,-0.76526 -1.80485,-1.64602 -2.68561,-2.50272 -0.78932,-0.76045 -1.56902,-1.53532 -2.32946,-2.32946 A 94.107059,94.107059 0 0 1 92.000391,243.0459 q 0,-4.28831 0.37541,-8.47556 c 4.28831,-48.21103 44.760169,-86.00209 94.102239,-86.00209 49.34207,0 89.81393,37.79106 94.10225,86.00209 q 0.37059,4.18725 0.3754,8.47556 z"
     fill="#eeeff0"
     id="path34"
     style="stroke-width:0.481292" />
  <path
     d="m 127.12509,161.2888 c 0,10.36703 30.36953,18.7704 67.83331,18.7704 37.46379,0 67.82852,-8.40818 67.82852,-18.7704 0,-10.36222 -67.82852,-31.49095 -67.82852,-18.77039 0,12.72054 -67.83331,8.40335 -67.83331,18.77039 z"
     fill="#6c63ff"
     id="path54"
     style="fill:#830404;fill-opacity:1;stroke-width:0.481292" />
  <g
     opacity="0.1"
     id="g58"
     transform="translate(81.657604,-195.09534)" />
  <path
     d="m 249.46475,161.2888 c 0,5.34234 -8.05684,10.15526 -20.97953,13.57725 l -1.06847,0.27434 a 161.30989,161.30989 0 0 1 -25.02719,4.0236 l -1.27061,0.1107 c -4.12468,0.34653 -8.4178,0.58236 -12.83606,0.69787 v 0 q -3.28242,0.0866 -6.64665,0.0915 c -1.77115,0 -3.5375,0 -5.29421,-0.0578 l -1.30912,-0.0337 a 214.05469,214.05469 0 0 1 -24.71435,-2.02143 c -0.40429,-0.0626 -0.80376,-0.12513 -1.19842,-0.17808 -10.10714,-1.53051 -18.63082,-3.74926 -24.78173,-6.42525 l -0.84227,-0.38022 c -6.16053,-2.82519 -9.70285,-6.13647 -9.70285,-9.67878 0,-10.36704 67.82851,-31.49096 67.82851,-18.7704 0,2.46421 2.55085,4.29313 6.65627,5.71293 v 0 c 17.10513,5.8814 61.18668,4.69742 61.18668,13.05747 z"
     fill="#6c63ff"
     id="path60"
     style="fill:#851111;fill-opacity:1;stroke-width:0.481292" />
  <path
     d="m 236.13777,98.90852 a 49.573093,49.573093 0 1 1 -1.83372,-13.41843 49.654913,49.654913 0 0 1 1.83372,13.41843 z"
     fill="#eeeff0"
     id="path62"
     style="stroke-width:0.481292" />
  <ellipse
     cx="160.16891"
     cy="85.493065"
     fill="#373e46"
     id="circle82"
     rx="4.7486501"
     ry="4.5378966"
     style="fill:#000000;fill-opacity:1;stroke-width:0.738009" />
  <ellipse
     cx="161.11259"
     cy="83.675056"
     fill="#ffffff"
     id="circle86"
     rx="0.95123982"
     ry="0.90902221"
     style="stroke-width:0.738009" />
  <ellipse
     cx="16.31513"
     cy="223.57286"
     fill="#373e46"
     id="circle82-6"
     rx="4.7486501"
     ry="4.5378966"
     style="fill:#000000;fill-opacity:1;stroke-width:0.738009"
     transform="rotate(-64.715012)" />
  <ellipse
     cx="17.25881"
     cy="221.75484"
     fill="#ffffff"
     id="circle86-2"
     rx="0.95123982"
     ry="0.90902221"
     style="stroke-width:0.738009"
     transform="rotate(-64.715012)" />
  <circle
     cx="183.24773"
     cy="220.94023"
     fill="#373e46"
     id="circle104"
     style="fill:#000000;fill-opacity:1;stroke-width:0.481292"
     r="10.901267" />
  <circle
     cx="200.36961"
     cy="252.96712"
     fill="#373e46"
     id="circle106"
     style="fill:#000000;fill-opacity:1;stroke-width:0.481292"
     r="10.901267" />
  <circle
     cx="184.34393"
     cy="286.38507"
     fill="#373e46"
     id="circle108"
     style="fill:#000000;fill-opacity:1;stroke-width:0.481292"
     r="10.901267" />
  <path
     d="m 212.52076,124.95124 c 0,3.00808 -11.6569,12.71574 -26.04272,12.71574 -14.38583,0 -26.04272,-9.70766 -26.04272,-12.71574 0,-1.40056 2.51234,-1.10697 6.64664,-0.39466 4.7648,0.82301 11.69059,2.20913 19.39608,2.20913 7.70549,0 14.63128,-1.38612 19.39608,-2.20913 4.1343,-0.72675 6.64664,-1.0059 6.64664,0.39466 z"
     fill="#373e46"
     id="path110"
     style="fill:#010101;fill-opacity:1;stroke-width:0.481292" />
  <path
     d="m 179.73288,102.69852 v 0 a 4.8417993,4.8417993 0 0 1 5.90724,-3.42906 l 33.33755,11.3211 a 2.584539,2.584539 0 0 1 1.65323,3.11655 v 0 a 2.584539,2.584539 0 0 1 -2.99427,1.86557 l -34.51598,-6.94315 a 4.8417993,4.8417993 0 0 1 -3.38777,-5.93101 z"
     fill="#6c63ff"
     id="path114"
     style="fill:#df730b;fill-opacity:1;stroke-width:0.481292"
     inkscape:transform-center-x="-9.680265"
     inkscape:transform-center-y="-5.1402535" />
  <metadata
     id="metadata964">
    <rdf:RDF>
      <cc:Work
         rdf:about="">
        <dc:title>snowman header</dc:title>
      </cc:Work>
    </rdf:RDF>
  </metadata>
  <path
     d="M 114.1483,212.34406 A 67.021311,59.611963 0 0 1 74.943111,181.36635 c 9.35621,-0.37435 16.5533,-6.71215 20.16868,-14.09064 4.73493,-9.6658 6.098579,-20.90013 8.518659,-31.16114 0.63974,-2.70658 -4.036259,-3.86707 -4.675999,-1.14552 -2.06233,8.75611 -3.59855,17.80048 -6.53631,26.36193 -2.62209,7.63306 -8.55233,15.86133 -18.598786,15.72282 a 2.4537444,2.1824777 0 0 0 -0.896484,0.13851 67.989339,60.472976 0 0 1 -4.065724,-29.791 c 0.420885,-2.74776 -4.448723,-2.71406 -4.848561,0 a 70.910261,63.070986 0 0 0 0.673412,20.17762 16.835296,14.974118 0 0 0 -10.867183,2.3734 c -2.605264,1.49741 -0.172562,5.24094 2.445325,3.72481 a 12.100368,10.762648 0 0 1 9.583492,-1.58351 72.749524,64.706908 0 0 0 47.012558,44.40949 c 2.97143,0.88722 4.23408,-3.29431 1.29211,-4.15906 z"
     fill="#795548"
     id="path44"
     style="fill:#8b4513;fill-opacity:1;stroke-width:0.396937" />
  <path
     d="m 311.04491,163.49654 a 14.160319,15.486106 0 0 0 -9.22908,-2.01949 59.643266,65.227473 0 0 0 -0.23814,-20.85645 c -0.44711,-2.78831 -4.52637,-2.62988 -4.07437,0.19306 4.67119,29.17948 -10.03403,58.24249 -35.40465,68.88851 -2.43986,1.0224 -1.20828,5.27709 1.25252,4.24595 a 61.190279,66.919331 0 0 0 37.67316,-47.76401 10.177729,11.130638 0 0 1 8.11802,1.25451 c 2.26578,1.46982 4.15723,-2.48335 1.90254,-3.94208 z"
     fill="#795548"
     id="path48"
     style="fill:#8b4513;fill-opacity:1;stroke-width:0.37021" />
  <text
     xml:space="preserve"
     style="font-style:normal;font-variant:normal;font-weight:bold;font-stretch:normal;font-size:102.767px;line-height:1.25;font-family:Ubuntu;-inkscape-font-specification:'Ubuntu, Bold';font-variant-ligatures:normal;font-variant-caps:normal;font-variant-numeric:normal;font-variant-east-asian:normal;fill:#fefefe;fill-opacity:1;stroke:none;stroke-width:2.56913"
     x="328.85986"
     y="276.60529"
     id="text16935"><tspan
       id="tspan16933"
       style="font-style:normal;font-variant:normal;font-weight:bold;font-stretch:normal;font-size:102.767px;font-family:Ubuntu;-inkscape-font-specification:'Ubuntu, Bold';font-variant-ligatures:normal;font-variant-caps:normal;font-variant-numeric:normal;font-variant-east-asian:normal;fill:#fefefe;fill-opacity:1;stroke-width:2.56913"
       x="328.85986"
       y="276.60529"
       sodipodi:role="line">Snowman</tspan></text>
  <text
     xml:space="preserve"
     style="font-style:normal;font-variant:normal;font-weight:normal;font-stretch:normal;font-size:40.0001px;line-height:1.25;font-family:Ubuntu;-inkscape-font-specification:'Ubuntu, Normal';font-variant-ligatures:normal;font-variant-caps:normal;font-variant-numeric:normal;font-variant-east-asian:normal;fill:#ffffff;fill-opacity:1;stroke:none;stroke-width:1"
     x="331.95514"
     y="330.88068"
     id="text51361"><tspan
       sodipodi:role="line"
       id="tspan53596"
       x="331.95514"
       y="330.88068">A static site generator for SPARQL backends.</tspan></text>
</svg>
