<?xml version="1.0" encoding="UTF-8" standalone="no"?>
<svg
   id="e74bd4af-75ad-424c-8d8d-88ea496f4445"
   data-name="Layer 1"
   width="538.88293"
   height="598.92468"
   viewBox="0 0 538.88293 598.92468"
   version="1.1"
   sodipodi:docname="snowman.svg"
   inkscape:version="1.1 (ce6663b3b7, 2021-05-25)"
   xmlns:inkscape="http://www.inkscape.org/namespaces/inkscape"
   xmlns:sodipodi="http://sodipodi.sourceforge.net/DTD/sodipodi-0.dtd"
   xmlns="http://www.w3.org/2000/svg"
   xmlns:svg="http://www.w3.org/2000/svg"
   xmlns:rdf="http://www.w3.org/1999/02/22-rdf-syntax-ns#"
   xmlns:cc="http://creativecommons.org/ns#"
   xmlns:dc="http://purl.org/dc/elements/1.1/">
  <defs
     id="defs147" />
  <sodipodi:namedview
     id="namedview145"
     pagecolor="#505050"
     bordercolor="#eeeeee"
     borderopacity="1"
     inkscape:pageshadow="0"
     inkscape:pageopacity="0"
     inkscape:pagecheckerboard="0"
     showgrid="false"
     fit-margin-top="0"
     fit-margin-left="0"
     fit-margin-right="0"
     fit-margin-bottom="0"
     inkscape:zoom="0.65604932"
     inkscape:cx="-162.33536"
     inkscape:cy="378.7825"
     inkscape:window-width="1856"
     inkscape:window-height="1016"
     inkscape:window-x="64"
     inkscape:window-y="27"
     inkscape:window-maximized="1"
     inkscape:current-layer="e74bd4af-75ad-424c-8d8d-88ea496f4445" />
  <title
     id="title2">Snowman logo</title>
  <path
     d="m 474.2576,402.60466 a 195.47,195.47 0 0 1 -51,132 q -5.35,5.93 -11.22,11.4 c -1.1,1 -2.21,2 -3.33,3 a 1.37,1.37 0 0 1 -0.25,0.23 c -0.61,0.57 -1.23,1.11 -1.85,1.63 a 195.76,195.76 0 0 1 -37.85,25.83 q -2.67,1.41 -5.41,2.73 c -2.53,1.23 -5.08,2.4 -7.67,3.51 -1.74,0.75 -3.5,1.47 -5.26,2.17 a 193.87,193.87 0 0 1 -35.94,10.42 c -1.79,0.34 -3.59,0.66 -5.4,0.93 -2.78,0.46 -5.6,0.85 -8.42,1.16 -1.71,0.2 -3.43,0.38 -5.16,0.53 q -8.67,0.78 -17.55,0.78 -8.88,0 -17.6,-0.78 c -1.8,-0.16 -3.6,-0.35 -5.39,-0.57 -2.79,-0.31 -5.57,-0.7 -8.33,-1.14 -1.7,-0.28 -3.38,-0.57 -5.07,-0.88 a 194.24,194.24 0 0 1 -35.21,-10.11 c -1.81,-0.7 -3.6,-1.43 -5.38,-2.21 q -3.76,-1.57 -7.44,-3.35 c -1.67,-0.8 -3.35,-1.62 -5,-2.48 a 195,195 0 0 1 -36,-23.77 c -1.82,-1.49 -3.59,-3 -5.35,-4.59 -1.76,-1.59 -3.75,-3.42 -5.58,-5.2 -1.64,-1.58 -3.26,-3.19 -4.84,-4.84 a 195.53,195.53 0 0 1 -55.099996,-136.4 q 0,-8.91 0.78,-17.61 c 8.91,-100.17 92.999996,-178.69 195.519996,-178.69 102.52,0 186.61,78.52 195.52,178.69 q 0.77,8.7 0.78,17.61 z"
     fill="#eeeff0"
     id="path34" />
  <g
     opacity="0.03"
     id="g38"
     transform="translate(81.657604,-195.09534)">
    <path
       d="m 796.3,650.7 a 195.47,195.47 0 0 1 -51,132 q -5.35,5.93 -11.22,11.4 c -1.1,1 -2.21,2 -3.33,3 a 1.37,1.37 0 0 1 -0.25,0.23 c -0.61,0.57 -1.23,1.11 -1.85,1.63 a 195.76,195.76 0 0 1 -37.85,25.83 q -2.67,1.41 -5.41,2.73 c -2.53,1.23 -5.08,2.4 -7.67,3.51 -1.74,0.75 -3.5,1.47 -5.26,2.17 a 193.87,193.87 0 0 1 -35.94,10.42 c -1.79,0.34 -3.59,0.66 -5.4,0.93 -2.78,0.46 -5.6,0.85 -8.42,1.16 -1.71,0.2 -3.43,0.38 -5.16,0.53 q -8.67,0.78 -17.55,0.78 -8.88,0 -17.6,-0.78 c -1.8,-0.16 -3.6,-0.35 -5.39,-0.57 -2.79,-0.31 -5.57,-0.7 -8.33,-1.14 -1.7,-0.28 -3.38,-0.57 -5.07,-0.88 a 194.24,194.24 0 0 1 -35.21,-10.11 c -1.81,-0.7 -3.6,-1.43 -5.38,-2.21 q -3.76,-1.57 -7.44,-3.35 c -1.67,-0.8 -3.35,-1.62 -5,-2.48 a 195,195 0 0 1 -36,-23.77 c -1.82,-1.49 -3.59,-3 -5.35,-4.59 -1.76,-1.59 -3.75,-3.42 -5.58,-5.2 -1.64,-1.58 -3.26,-3.19 -4.84,-4.84 A 195.53,195.53 0 0 1 403.7,650.7 q 0,-8.91 0.78,-17.61 A 196.3,196.3 0 0 1 594.83,454.48 c 1.72,-0.05 3.45,-0.08 5.17,-0.08 q 6.19,0 12.27,0.38 a 196.3,196.3 0 0 1 183.25,178.31 q 0.77,8.7 0.78,17.61 z"
       transform="translate(-403.7,-53)"
       id="path36" />
  </g>
  <path
     d="m 154.6376,232.73466 c 0,21.54 63.1,39 140.94,39 77.84,0 140.93,-17.47 140.93,-39 0,-21.53 -140.93,-65.43 -140.93,-39 0,26.43 -140.94,17.46 -140.94,39 z"
     fill="#6c63ff"
     id="path54"
     style="fill:#830404;fill-opacity:1" />
  <g
     opacity="0.1"
     id="g58"
     transform="translate(81.657604,-195.09534)" />
  <path
     d="m 408.8276,232.73466 c 0,11.1 -16.74,21.1 -43.59,28.21 l -2.22,0.57 a 335.16,335.16 0 0 1 -52,8.36 l -2.64,0.23 c -8.57,0.72 -17.49,1.21 -26.67,1.45 v 0 q -6.82,0.18 -13.81,0.19 c -3.68,0 -7.35,0 -11,-0.12 l -2.72,-0.07 a 444.75,444.75 0 0 1 -51.35,-4.2 c -0.84,-0.13 -1.67,-0.26 -2.49,-0.37 -21,-3.18 -38.71,-7.79 -51.49,-13.35 l -1.75,-0.79 c -12.8,-5.87 -20.16,-12.75 -20.16,-20.11 0,-21.54 140.93,-65.43 140.93,-39 0,5.12 5.3,8.92 13.83,11.87 v 0 c 35.54,12.22 127.13,9.76 127.13,27.13 z"
     fill="#6c63ff"
     id="path60"
     style="fill:#851111;fill-opacity:1" />
  <path
     d="m 381.1376,103.12466 a 103,103 0 1 1 -3.81,-27.879999 103.17,103.17 0 0 1 3.81,27.879999 z"
     fill="#eeeff0"
     id="path62" />
  <g
     opacity="0.03"
     id="g66"
     transform="translate(81.657604,-195.09534)">
    <path
       d="m 703.18,351.22 a 103,103 0 1 1 -3.81,-27.88 103.17,103.17 0 0 1 3.81,27.88 z"
       transform="translate(-403.7,-53)"
       id="path64" />
  </g>
  <ellipse
     cx="226.2941"
     cy="78.117714"
     fill="#373e46"
     id="circle82"
     rx="12.8665"
     ry="12.295462"
     style="fill:#000000;fill-opacity:1;stroke-width:1.99964" />
  <ellipse
     cx="228.85103"
     cy="73.191772"
     fill="#ffffff"
     id="circle86"
     rx="2.5773909"
     ry="2.463002"
     style="stroke-width:1.99964" />
  <ellipse
     cx="78.193092"
     cy="325.82339"
     fill="#373e46"
     id="circle82-6"
     rx="12.978965"
     ry="12.402935"
     style="fill:#000000;fill-opacity:1;stroke-width:2.01712"
     transform="rotate(-64.715012)" />
  <ellipse
     cx="80.772369"
     cy="320.8544"
     fill="#ffffff"
     id="circle86-2"
     rx="2.5999198"
     ry="2.4845309"
     style="stroke-width:2.01712"
     transform="rotate(-64.715012)" />
  <circle
     cx="271.24588"
     cy="356.6748"
     r="22.65"
     fill="#373e46"
     id="circle104"
     style="fill:#000000;fill-opacity:1" />
  <circle
     cx="306.82068"
     cy="423.21838"
     r="22.65"
     fill="#373e46"
     id="circle106"
     style="fill:#000000;fill-opacity:1" />
  <circle
     cx="273.52347"
     cy="492.65222"
     r="22.65"
     fill="#373e46"
     id="circle108"
     style="fill:#000000;fill-opacity:1" />
  <path
     d="m 332.0676,157.23466 c 0,6.25 -24.22,26.42 -54.11,26.42 -29.89,0 -54.11,-20.17 -54.11,-26.42 0,-2.91 5.22,-2.3 13.81,-0.82 9.9,1.71 24.29,4.59 40.3,4.59 16.01,0 30.4,-2.88 40.3,-4.59 8.59,-1.51 13.81,-2.09 13.81,0.82 z"
     fill="#373e46"
     id="path110"
     style="fill:#010101;fill-opacity:1" />
  <path
     d="m 263.94292,110.99929 v 0 a 10.06,10.06 0 0 1 12.2737,-7.12469 l 69.26676,23.5223 a 5.37,5.37 0 0 1 3.43498,6.47538 v 0 a 5.37,5.37 0 0 1 -6.22132,3.87618 l -71.71522,-14.42607 a 10.06,10.06 0 0 1 -7.0389,-12.3231 z"
     fill="#6c63ff"
     id="path114"
     style="fill:#df730b;fill-opacity:1"
     inkscape:transform-center-x="-20.113075"
     inkscape:transform-center-y="-10.680103" />
  <metadata
     id="metadata964">
    <rdf:RDF>
      <cc:Work
         rdf:about="">
        <dc:title>Snowman logo</dc:title>
      </cc:Work>
    </rdf:RDF>
  </metadata>
  <path
     d="M 127.67521,338.81421 A 139.25286,123.85816 0 0 1 46.217006,274.45059 c 19.439784,-0.77781 34.393463,-13.9461 41.905282,-29.27669 9.837947,-20.08301 12.671272,-43.42503 17.699562,-64.74475 1.32921,-5.62355 -8.386306,-8.03476 -9.715522,-2.38009 -4.284972,18.19293 -7.476839,36.98477 -13.580739,54.77324 -5.448036,15.85951 -17.769518,32.95573 -38.643455,32.66794 a 5.0982428,4.5346213 0 0 0 -1.862652,0.28779 141.26417,125.64712 0 0 1 -8.447517,-61.89797 c 0.874484,-5.70911 -9.243294,-5.63911 -10.074054,0 a 147.33309,131.04511 0 0 0 1.399175,41.92386 34.979367,31.112324 0 0 0 -22.5791816,4.9313 c -5.41306,3.11124 -0.35854,10.88932 5.08075,7.73919 a 25.14142,22.361983 0 0 1 19.9120046,-3.29012 151.15459,134.44413 0 0 0 97.679881,92.27137 c 6.17386,1.84341 8.79731,-6.84471 2.68467,-8.64145 z"
     fill="#795548"
     id="path44"
     style="fill:#8b4513;fill-opacity:1;stroke-width:0.824731" />
  <path
     d="m 536.77516,237.32178 a 29.421462,32.176101 0 0 0 -19.17562,-4.196 123.9232,135.52573 0 0 0 -0.4948,-43.33427 c -0.92897,-5.79338 -9.40462,-5.4642 -8.46546,0.40114 9.70549,60.62737 -20.84812,121.01275 -73.56166,143.1324 -5.06941,2.12429 -2.51049,10.96444 2.60239,8.82198 a 127.13749,139.04097 0 0 0 78.27503,-99.24119 21.146676,23.126572 0 0 1 16.86716,2.60654 c 4.70768,3.0539 8.63764,-5.15975 3.95296,-8.1906 z"
     fill="#795548"
     id="path48"
     style="fill:#8b4513;fill-opacity:1;stroke-width:0.769199" />
</svg>