<?xml version="1.0" encoding="UTF-8" standalone="no"?>
<svg
   id="e74bd4af-75ad-424c-8d8d-88ea496f4445"
   data-name="Layer 1"
   width="1460.8829"
   height="400.92468"
   viewBox="0 0 1460.8855 400.92468"
   version="1.1"
   sodipodi:docname="snowman-header.svg"
   inkscape:version="1.1 (ce6663b3b7, 2021-05-25)"
   xmlns:inkscape="http://www.inkscape.org/namespaces/inkscape"
   xmlns:sodipodi="http://sodipodi.sourceforge.net/DTD/sodipodi-0.dtd"
   xmlns="http://www.w3.org/2000/svg"
   xmlns:svg="http://www.w3.org/2000/svg"
   xmlns:rdf="http://www.w3.org/1999/02/22-rdf-syntax-ns#"
   xmlns:cc="http://creativecommons.org/ns#"
   xmlns:dc="http://purl.org/dc/elements/1.1/">
  <title
     id="title1266">snowman header</title>
  <rect
     id="rect54057"
     width="100%"
     height="100%"
     x="0"
     y="0"
     style="fill:#2427ff;fill-opacity:1" />
  <defs
     id="defs147" />
  <sodipodi:namedview
     id="namedview145"
     pagecolor="#2e2e2e"
     bordercolor="#eeeeee"
     borderopacity="1"
     inkscape:pageshadow="0"
     inkscape:pageopacity="0"
     inkscape:pagecheckerboard="true"
     showgrid="false"
     fit-margin-top="0"
     fit-margin-left="0"
     fit-margin-right="0"
     fit-margin-bottom="0"
     inkscape:zoom="1.5791539"
     inkscape:cx="290.34536"
     inkscape:cy="209.92254"
     inkscape:window-width="1856"
     inkscape:window-height="1016"
     inkscape:window-x="64"
     inkscape:window-y="27"
     inkscape:window-maximized="1"
     inkscape:current-layer="e74bd4af-75ad-424c-8d8d-88ea496f4445" />
  <g
     opacity="0.1"
     id="g58"
     transform="translate(81.657604,-195.09534)" />
  <metadata
     id="metadata964">
    <rdf:RDF>
      <cc:Work
         rdf:about="">
        <dc:title>snowman header</dc:title>
      </cc:Work>
    </rdf:RDF>
  </metadata>
  <text
     xml:space="preserve"
     style="font-style:normal;font-variant:normal;font-weight:bold;font-stretch:normal;font-size:102.767px;line-height:1.25;font-family:Ubuntu;-inkscape-font-specification:'Ubuntu, Bold';font-variant-ligatures:normal;font-variant-caps:normal;font-variant-numeric:normal;font-variant-east-asian:normal;fill:#fefefe;fill-opacity:1;stroke:none;stroke-width:2.56913"
     x="328.85986"
     y="276.60529"
     id="text16935"><tspan
       id="tspan16933"
       style="font-style:normal;font-variant:normal;font-weight:bold;font-stretch:normal;font-size:102.767px;font-family:Ubuntu;-inkscape-font-specification:'Ubuntu, Bold';font-variant-ligatures:normal;font-variant-caps:normal;font-variant-numeric:normal;font-variant-east-asian:normal;fill:#fefefe;fill-opacity:1;stroke-width:2.56913"
       x="328.85986"
       y="276.60529"
       sodipodi:role="line">Snowman</tspan></text>
  <text
     xml:space="preserve"
     style="font-style:normal;font-variant:normal;font-weight:normal;font-stretch:normal;font-size:40.0001px;line-height:1.25;font-family:Ubuntu;-inkscape-font-specification:'Ubuntu, Normal';font-variant-ligatures:normal;font-variant-caps:normal;font-variant-numeric:normal;font-variant-east-asian:normal;fill:#ffffff;fill-opacity:1;stroke:none;stroke-width:1"
     x="331.95514"
     y="330.88068"
     id="text51361"><tspan
       sodipodi:role="line"
       id="tspan53596"
       x="331.95514"
       y="330.88068">A static site generator for SPARQL backends.</tspan></text>
  <path
     d="m 267.694,258.56044 a 99.413305,99.413305 0 0 1 -25.9379,67.13335 q -2.72092,3.01591 -5.70632,5.79788 c -0.55945,0.50858 -1.12397,1.01718 -1.69359,1.52576 a 0.69676284,0.69676284 0 0 1 -0.12721,0.11701 c -0.31025,0.2899 -0.62557,0.56453 -0.94089,0.829 a 99.560795,99.560795 0 0 1 -19.24999,13.13677 q -1.35791,0.71711 -2.75144,1.38845 c -1.28672,0.62555 -2.58361,1.2206 -3.90085,1.78513 -0.88494,0.38144 -1.78007,0.74762 -2.67517,1.10363 a 98.599569,98.599569 0 0 1 -18.27851,5.29942 c -0.91037,0.17292 -1.82583,0.33567 -2.74636,0.47299 -1.41387,0.23394 -2.84809,0.4323 -4.2823,0.58996 -0.86968,0.10175 -1.74444,0.19327 -2.62431,0.26955 q -4.40942,0.3967 -8.92568,0.3967 -4.51624,0 -8.9511,-0.3967 c -0.91547,-0.0812 -1.83091,-0.178 -2.74128,-0.28989 -1.41896,-0.15766 -2.83284,-0.35602 -4.23653,-0.57979 -0.86459,-0.1424 -1.71902,-0.2899 -2.57853,-0.44756 a 98.787746,98.787746 0 0 1 -17.90731,-5.1418 c -0.92055,-0.356 -1.83092,-0.72728 -2.7362,-1.12397 q -1.91228,-0.79849 -3.78388,-1.70378 c -0.84934,-0.40685 -1.70377,-0.8239 -2.54292,-1.26128 a 99.17427,99.17427 0 0 1 -18.30911,-12.08908 c -0.92562,-0.75781 -1.82582,-1.52577 -2.72093,-2.33442 -0.89511,-0.80864 -1.907191,-1.73936 -2.837921,-2.64465 -0.83407,-0.80356 -1.65798,-1.62239 -2.46154,-2.46155 A 99.443819,99.443819 0 0 1 68.023138,258.56044 q 0,-4.53151 0.396697,-8.95619 c 4.531503,-50.94508 47.298495,-90.87924 99.438725,-90.87924 52.14024,0 94.90725,39.93416 99.43874,90.87924 q 0.39161,4.42468 0.3967,8.95619 z"
     fill="#eeeff0"
     id="path34"
     style="stroke-width:0.508585" />
  <g
     opacity="0.03"
     id="g38"
     transform="matrix(0.508586,0,0,0.508586,68.023138,-45.421426)">
    <path
       d="m 796.3,650.7 a 195.47,195.47 0 0 1 -51,132 q -5.35,5.93 -11.22,11.4 c -1.1,1 -2.21,2 -3.33,3 a 1.37,1.37 0 0 1 -0.25,0.23 c -0.61,0.57 -1.23,1.11 -1.85,1.63 a 195.76,195.76 0 0 1 -37.85,25.83 q -2.67,1.41 -5.41,2.73 c -2.53,1.23 -5.08,2.4 -7.67,3.51 -1.74,0.75 -3.5,1.47 -5.26,2.17 a 193.87,193.87 0 0 1 -35.94,10.42 c -1.79,0.34 -3.59,0.66 -5.4,0.93 -2.78,0.46 -5.6,0.85 -8.42,1.16 -1.71,0.2 -3.43,0.38 -5.16,0.53 q -8.67,0.78 -17.55,0.78 -8.88,0 -17.6,-0.78 c -1.8,-0.16 -3.6,-0.35 -5.39,-0.57 -2.79,-0.31 -5.57,-0.7 -8.33,-1.14 -1.7,-0.28 -3.38,-0.57 -5.07,-0.88 a 194.24,194.24 0 0 1 -35.21,-10.11 c -1.81,-0.7 -3.6,-1.43 -5.38,-2.21 q -3.76,-1.57 -7.44,-3.35 c -1.67,-0.8 -3.35,-1.62 -5,-2.48 a 195,195 0 0 1 -36,-23.77 c -1.82,-1.49 -3.59,-3 -5.35,-4.59 -1.76,-1.59 -3.75,-3.42 -5.58,-5.2 -1.64,-1.58 -3.26,-3.19 -4.84,-4.84 A 195.53,195.53 0 0 1 403.7,650.7 q 0,-8.91 0.78,-17.61 A 196.3,196.3 0 0 1 594.83,454.48 c 1.72,-0.05 3.45,-0.08 5.17,-0.08 q 6.19,0 12.27,0.38 a 196.3,196.3 0 0 1 183.25,178.31 q 0.77,8.7 0.78,17.61 z"
       transform="translate(-403.7,-53)"
       id="path36" />
  </g>
  <path
     d="m 105.13974,172.16693 c 0,10.95495 32.09177,19.83486 71.68011,19.83486 39.58834,0 71.67503,-8.88499 71.67503,-19.83486 0,-10.94985 -71.67503,-33.27678 -71.67503,-19.83485 0,13.44193 -71.68011,8.87991 -71.68011,19.83485 z"
     fill="#6c63ff"
     id="path54"
     style="fill:#830404;fill-opacity:1;stroke-width:0.508585" />
  <path
     d="m 234.41721,172.16693 c 0,5.6453 -8.51372,10.73117 -22.16926,14.34722 l -1.12906,0.28989 a 170.45768,170.45768 0 0 1 -26.44648,4.25177 l -1.34267,0.11702 c -4.35856,0.36618 -8.89516,0.61539 -13.56397,0.73746 v 0 q -3.46856,0.0915 -7.02358,0.0966 c -1.8716,0 -3.73812,0 -5.59444,-0.0611 l -1.38336,-0.0355 a 226.19362,226.19362 0 0 1 -26.1159,-2.13607 c -0.42721,-0.0661 -0.84933,-0.13218 -1.26637,-0.18817 -10.6803,-1.61731 -19.68736,-3.96188 -26.18709,-6.78964 l -0.89003,-0.40177 c -6.509901,-2.98541 -10.253088,-6.48448 -10.253088,-10.22767 0,-10.95494 71.675028,-33.27678 71.675028,-19.83485 0,2.60395 2.69551,4.53658 7.03373,6.03691 v 0 c 18.07515,6.21493 64.65654,4.96379 64.65654,13.79794 z"
     fill="#6c63ff"
     id="path60"
     style="fill:#851111;fill-opacity:1;stroke-width:0.508585" />
  <path
     d="m 220.33447,106.24909 a 52.38436,52.38436 0 1 1 -1.93771,-14.179377 52.47082,52.47082 0 0 1 1.93771,14.179377 z"
     fill="#eeeff0"
     id="path62"
     style="stroke-width:0.508585" />
  <g
     opacity="0.03"
     id="g66"
     transform="matrix(0.508586,0,0,0.508586,68.023138,-45.421426)">
    <path
       d="m 703.18,351.22 a 103,103 0 1 1 -3.81,-27.88 103.17,103.17 0 0 1 3.81,27.88 z"
       transform="translate(-403.7,-53)"
       id="path64" />
  </g>
  <ellipse
     cx="141.58324"
     cy="93.530922"
     fill="#373e46"
     id="circle82"
     rx="6.5437212"
     ry="6.2532997"
     style="fill:#000000;fill-opacity:1;stroke-width:1.01699" />
  <ellipse
     cx="142.88365"
     cy="91.025658"
     fill="#ffffff"
     id="circle86"
     rx="1.3108249"
     ry="1.2526484"
     style="stroke-width:1.01699" />
  <ellipse
     cx="2.4368534"
     cy="212.64392"
     fill="#373e46"
     id="circle82-6"
     rx="6.6009207"
     ry="6.3079586"
     style="fill:#000000;fill-opacity:1;stroke-width:1.02588"
     transform="rotate(-64.715012)" />
  <ellipse
     cx="3.7486286"
     cy="210.11674"
     fill="#ffffff"
     id="circle86-2"
     rx="1.3222829"
     ry="1.2635977"
     style="stroke-width:1.02588"
     transform="rotate(-64.715012)" />
  <circle
     cx="164.44507"
     cy="235.20114"
     r="11.519471"
     fill="#373e46"
     id="circle104"
     style="fill:#000000;fill-opacity:1;stroke-width:0.508585" />
  <circle
     cx="182.53793"
     cy="269.04431"
     r="11.519471"
     fill="#373e46"
     id="circle106"
     style="fill:#000000;fill-opacity:1;stroke-width:0.508585" />
  <circle
     cx="165.60344"
     cy="304.35736"
     r="11.519471"
     fill="#373e46"
     id="circle108"
     style="fill:#000000;fill-opacity:1;stroke-width:0.508585" />
  <path
     d="m 195.37815,133.76869 c 0,3.17866 -12.31794,13.43684 -27.51959,13.43684 -15.20163,0 -27.51957,-10.25818 -27.51957,-13.43684 0,-1.47999 2.6548,-1.16974 7.02357,-0.41705 5.03499,0.86969 12.35355,2.33442 20.496,2.33442 8.14247,0 15.46102,-1.46473 20.49602,-2.33442 4.36875,-0.76795 7.02357,-1.06294 7.02357,0.41705 z"
     fill="#373e46"
     id="path110"
     style="fill:#010101;fill-opacity:1;stroke-width:0.508585" />
  <path
     d="m 160.73089,110.25402 v 0 a 5.1163751,5.1163751 0 0 1 6.24224,-3.62352 l 35.22811,11.96313 a 2.7311068,2.7311068 0 0 1 1.74697,3.29328 v 0 a 2.7311068,2.7311068 0 0 1 -3.16407,1.97137 l -36.47335,-7.3369 a 5.1163751,5.1163751 0 0 1 -3.5799,-6.26736 z"
     fill="#6c63ff"
     id="path114"
     style="fill:#df730b;fill-opacity:1;stroke-width:0.508585"
     inkscape:transform-center-x="-10.229208"
     inkscape:transform-center-y="-5.4317425" />
  <path
     d="M 91.427049,226.11751 A 70.822055,62.992524 0 0 1 49.998547,193.38307 c 9.886802,-0.39558 17.492031,-7.09278 21.312441,-14.88972 5.003441,-10.21393 6.44443,-22.08536 9.001749,-32.92827 0.676015,-2.86005 -4.265158,-4.08637 -4.94118,-1.21048 -2.179277,9.25268 -3.802614,18.80994 -6.906971,27.8569 -2.770797,8.06593 -9.03733,16.76082 -19.653524,16.61447 a 2.5928949,2.3062449 0 0 0 -0.947315,0.14635 71.844977,63.902368 0 0 1 -4.296289,-31.48044 c 0.444748,-2.90357 -4.701015,-2.86797 -5.123526,0 a 74.931549,66.647711 0 0 0 0.711602,21.3219 17.790016,15.823292 0 0 0 -11.483454,2.50799 c -2.75301,1.58232 -0.182349,5.53816 2.583997,3.93604 a 12.786574,11.372991 0 0 1 10.126967,-1.67331 76.875108,68.3764 0 0 0 49.678617,46.92793 c 3.139938,0.93753 4.474198,-3.48113 1.365388,-4.39492 z"
     fill="#795548"
     id="path44"
     style="fill:#8b4513;fill-opacity:1;stroke-width:0.419447" />
  <path
     d="m 299.48955,174.49989 a 14.963344,16.364315 0 0 0 -9.75246,-2.13403 63.025603,68.926487 0 0 0 -0.25163,-22.03921 c -0.47247,-2.94643 -4.78308,-2.77902 -4.30542,0.204 4.93607,30.83424 -10.60306,61.5454 -37.41243,72.79514 -2.57824,1.08039 -1.2768,5.57637 1.32354,4.48674 a 64.660348,70.714291 0 0 0 39.80958,-50.47269 10.754904,11.761851 0 0 1 8.57839,1.32567 c 2.39428,1.55316 4.39299,-2.62418 2.01043,-4.16562 z"
     fill="#795548"
     id="path48"
     style="fill:#8b4513;fill-opacity:1;stroke-width:0.391204" />
</svg>